<?xml version="1.0" standalone="no"?><svg xmlns="http://www.w3.org/2000/svg" viewBox="0 0 1440 320"><path fill="#646464" fill-opacity="1" d="M0,160L30,160C60,160,120,160,180,170.7C240,181,300,203,360,229.3C420,256,480,288,540,266.7C600,245,660,171,720,122.7C780,75,840,53,900,58.7C960,64,1020,96,1080,128C1140,160,1200,192,1260,170.7C1320,149,1380,75,1410,37.3L1440,0L1440,320L1410,320C1380,320,1320,320,1260,320C1200,320,1140,320,1080,320C1020,320,960,320,900,320C840,320,780,320,720,320C660,320,600,320,540,320C480,320,420,320,360,320C300,320,240,320,180,320C120,320,60,320,30,320L0,320Z"></path></svg>