<?xml version="1.0" standalone="no"?><svg xmlns="http://www.w3.org/2000/svg" viewBox="0 0 1440 320"><path fill="#646464" fill-opacity="1" d="M0,224L30,208C60,192,120,160,180,160C240,160,300,192,360,208C420,224,480,224,540,224C600,224,660,224,720,202.7C780,181,840,139,900,138.7C960,139,1020,181,1080,176C1140,171,1200,117,1260,90.7C1320,64,1380,64,1410,64L1440,64L1440,320L1410,320C1380,320,1320,320,1260,320C1200,320,1140,320,1080,320C1020,320,960,320,900,320C840,320,780,320,720,320C660,320,600,320,540,320C480,320,420,320,360,320C300,320,240,320,180,320C120,320,60,320,30,320L0,320Z"></path></svg>