<?xml version="1.0" standalone="no"?><svg xmlns="http://www.w3.org/2000/svg" viewBox="0 0 1440 320"><path fill="#293737" fill-opacity="1" d="M0,192L34.3,165.3C68.6,139,137,85,206,74.7C274.3,64,343,96,411,112C480,128,549,128,617,112C685.7,96,754,64,823,96C891.4,128,960,224,1029,218.7C1097.1,213,1166,107,1234,64C1302.9,21,1371,43,1406,53.3L1440,64L1440,320L1405.7,320C1371.4,320,1303,320,1234,320C1165.7,320,1097,320,1029,320C960,320,891,320,823,320C754.3,320,686,320,617,320C548.6,320,480,320,411,320C342.9,320,274,320,206,320C137.1,320,69,320,34,320L0,320Z"></path></svg>