<?xml version="1.0" standalone="no"?><svg xmlns="http://www.w3.org/2000/svg" viewBox="0 0 1440 320"><path fill="#91918F" fill-opacity="1" d="M0,160L34.3,170.7C68.6,181,137,203,206,192C274.3,181,343,139,411,122.7C480,107,549,117,617,128C685.7,139,754,149,823,170.7C891.4,192,960,224,1029,240C1097.1,256,1166,256,1234,224C1302.9,192,1371,128,1406,96L1440,64L1440,320L1405.7,320C1371.4,320,1303,320,1234,320C1165.7,320,1097,320,1029,320C960,320,891,320,823,320C754.3,320,686,320,617,320C548.6,320,480,320,411,320C342.9,320,274,320,206,320C137.1,320,69,320,34,320L0,320Z"></path></svg>