<?xml version="1.0" standalone="no"?><svg xmlns="http://www.w3.org/2000/svg" viewBox="0 0 1440 320"><path fill="#5D6363" fill-opacity="1" d="M0,256L34.3,266.7C68.6,277,137,299,206,266.7C274.3,235,343,149,411,122.7C480,96,549,128,617,165.3C685.7,203,754,245,823,229.3C891.4,213,960,139,1029,122.7C1097.1,107,1166,149,1234,170.7C1302.9,192,1371,192,1406,192L1440,192L1440,320L1405.7,320C1371.4,320,1303,320,1234,320C1165.7,320,1097,320,1029,320C960,320,891,320,823,320C754.3,320,686,320,617,320C548.6,320,480,320,411,320C342.9,320,274,320,206,320C137.1,320,69,320,34,320L0,320Z"></path></svg>