<?xml version="1.0" standalone="no"?><svg xmlns="http://www.w3.org/2000/svg" viewBox="0 0 1440 320"><path fill="#7c7c7c" fill-opacity="1" d="M0,256L26.7,266.7C53.3,277,107,299,160,266.7C213.3,235,267,149,320,122.7C373.3,96,427,128,480,160C533.3,192,587,224,640,218.7C693.3,213,747,171,800,165.3C853.3,160,907,192,960,213.3C1013.3,235,1067,245,1120,261.3C1173.3,277,1227,299,1280,282.7C1333.3,267,1387,213,1413,186.7L1440,160L1440,320L1413.3,320C1386.7,320,1333,320,1280,320C1226.7,320,1173,320,1120,320C1066.7,320,1013,320,960,320C906.7,320,853,320,800,320C746.7,320,693,320,640,320C586.7,320,533,320,480,320C426.7,320,373,320,320,320C266.7,320,213,320,160,320C106.7,320,53,320,27,320L0,320Z"></path></svg>