<?xml version="1.0" standalone="no"?><svg xmlns="http://www.w3.org/2000/svg" viewBox="0 0 1440 320"><path fill="#808080" fill-opacity="1" d="M0,320L26.7,298.7C53.3,277,107,235,160,229.3C213.3,224,267,256,320,256C373.3,256,427,224,480,229.3C533.3,235,587,277,640,298.7C693.3,320,747,320,800,282.7C853.3,245,907,171,960,154.7C1013.3,139,1067,181,1120,181.3C1173.3,181,1227,139,1280,133.3C1333.3,128,1387,160,1413,176L1440,192L1440,320L1413.3,320C1386.7,320,1333,320,1280,320C1226.7,320,1173,320,1120,320C1066.7,320,1013,320,960,320C906.7,320,853,320,800,320C746.7,320,693,320,640,320C586.7,320,533,320,480,320C426.7,320,373,320,320,320C266.7,320,213,320,160,320C106.7,320,53,320,27,320L0,320Z"></path></svg>