<?xml version="1.0" standalone="no"?><svg xmlns="http://www.w3.org/2000/svg" viewBox="0 0 1440 320"><path fill="#c2c2c2" fill-opacity="1" d="M0,192L26.7,192C53.3,192,107,192,160,170.7C213.3,149,267,107,320,112C373.3,117,427,171,480,165.3C533.3,160,587,96,640,101.3C693.3,107,747,181,800,202.7C853.3,224,907,192,960,165.3C1013.3,139,1067,117,1120,101.3C1173.3,85,1227,75,1280,74.7C1333.3,75,1387,85,1413,90.7L1440,96L1440,320L1413.3,320C1386.7,320,1333,320,1280,320C1226.7,320,1173,320,1120,320C1066.7,320,1013,320,960,320C906.7,320,853,320,800,320C746.7,320,693,320,640,320C586.7,320,533,320,480,320C426.7,320,373,320,320,320C266.7,320,213,320,160,320C106.7,320,53,320,27,320L0,320Z"></path></svg>